<svg width="120" height="36" xmlns="http://www.w3.org/2000/svg"><defs><linearGradient x1="99.822%" y1="87.452%" x2="30.033%" y2="28.957%" id="a"><stop stop-color="#00FF2E" offset="0%"/><stop stop-color="#00BDFF" offset="100%"/></linearGradient></defs><g fill="none" fill-rule="evenodd"><g fill-rule="nonzero"><path d="M18.206 7.181c4.58 0 8.413 3.465 8.927 8.008l-.006-.047.055.02a7.082 7.082 0 0 1 4.523 6.402l.003.1v.115c0 3.91-3.15 7.08-7.038 7.08h-2a1.518 1.518 0 0 1-1.514-1.522c0-.84.678-1.522 1.513-1.522h2c2.217 0 4.013-1.807 4.013-4.036 0-2.23-1.796-4.036-4.012-4.036-.256 0-.456.016-.6.048.063-.314.095-.838.095-1.57 0-3.312-2.668-5.995-5.96-5.995-3.193 0-5.815 2.532-5.953 5.73l-.012.282-.273-.069-2.517-.635-.173-.044v-.277l.001-.026c.508-4.487 4.26-7.93 8.78-8.005h.148z" fill="#0D53FF"/><path d="M7.013 7.564c3.873 0 7.013 3.159 7.013 7.055a7.13 7.13 0 0 1-.219 1.752 1.511 1.511 0 0 1-1.839 1.097 1.521 1.521 0 0 1-1.09-1.85 4 4 0 0 0 .124-1c0-2.216-1.786-4.012-3.99-4.012-2.202 0-3.989 1.796-3.989 4.013 0 2.216 1.787 4.013 3.99 4.013h6.672c.835 0 1.512.68 1.512 1.52s-.677 1.521-1.512 1.521H7.013C3.14 21.673 0 18.515 0 14.62c0-3.896 3.14-7.055 7.013-7.055z" fill="url(#a)" transform="translate(4.55 7.181)"/></g><path d="M47.98 11.247h1.028c.673 1.216 1.383 2.178 2.13 2.889h-5.737c.972-.79 1.832-1.753 2.58-2.889zm8.425 2.785c-1.787-.336-3.39-1.647-4.125-2.785h3.826c.106 0 .19-.086.19-.193V8.835a.192.192 0 0 0-.19-.192h-6.724a4.66 4.66 0 0 0 .15-.38c.112-.273.2-.493.263-.66l.012-.018.067-.164c.078-.198.068-.284-.138-.284H46.88a.229.229 0 0 0-.205.128l-.11.222c-.194.415-.395.8-.602 1.156h-5.36a.192.192 0 0 0-.191.192v2.22c0 .106.086.192.19.192h3.657c-.857 1.15-2.24 2.057-4.112 2.807a.232.232 0 0 0-.146.214v2.393c0 .133.129.23.255.19 1.209-.382 2.32-.861 3.333-1.437v1.01c0 .107.087.195.194.195h9.293a.195.195 0 0 0 .194-.196v-.796c.91.458 1.94.82 3.09 1.084a.196.196 0 0 0 .237-.192v-2.26a.232.232 0 0 0-.19-.227zm7.049 4.994h8.184V16.14h-8.184v2.886zm12.403 6.83h-3.945v-4.262h2.51c.106 0 .192-.086.192-.193v-7.636a.192.192 0 0 0-.191-.193H69.12V11.59h6.493c.105 0 .19-.086.19-.193V9.12a.192.192 0 0 0-.19-.193h-6.493V7.462a.192.192 0 0 0-.19-.193h-2.7a.192.192 0 0 0-.19.193v1.464h-6.438a.192.192 0 0 0-.19.194v2.277c0 .107.085.193.19.193h6.437v1.982h-5.372a.192.192 0 0 0-.19.193v7.636c0 .107.085.193.19.193h2.78c0 2.419-1.96 3.931-4.037 4.37a.231.231 0 0 0-.185.226v2.61c0 .12.106.215.223.198 4.207-.607 6.81-3.467 7.027-7.404h2.409v6.712c0 .15.12.272.269.272h6.703a.192.192 0 0 0 .19-.193v-2.337a.192.192 0 0 0-.19-.193zm-19.545-7.798H40.228a.192.192 0 0 0-.19.193v2.219c0 .106.084.192.19.192h2.844l-1.185 4.115a.192.192 0 0 0 .183.247h9.673l-1.027 3.545a.193.193 0 0 0 .184.247h2.64a.23.23 0 0 0 .22-.166l1.764-6.04a.193.193 0 0 0-.183-.247h-9.768l.487-1.7h10.252c.105 0 .19-.087.19-.193V18.25a.192.192 0 0 0-.19-.193zM95.639 7.694c.105 0 .19.086.19.193V28.46a.192.192 0 0 1-.19.193h-3.858a.192.192 0 0 1-.191-.193V26.31c0-.106.086-.192.19-.192h1.29v-15.91H82.047V28.51a.192.192 0 0 1-.19.193h-2.38a.192.192 0 0 1-.19-.193V7.887c0-.107.085-.193.19-.193H95.64zm-7.914 3.961c.121 0 .212.113.187.233l-.96 4.554 1.792.798.82-3.893a.23.23 0 0 1 .225-.184h2.237c.122 0 .212.113.187.233l-1.037 4.927 1.027.458c.083.037.137.12.137.211v2.404c0 .14-.141.232-.268.176l-1.446-.643-.795 3.777a.23.23 0 0 1-.224.183H87.37a.192.192 0 0 1-.186-.232l1.013-4.81-1.792-.799-.874 4.15a.23.23 0 0 1-.224.183h-2.238a.192.192 0 0 1-.187-.232l1.092-5.183-1.143-.509a.232.232 0 0 1-.137-.211v-2.404c0-.14.142-.233.268-.176l1.56.694.742-3.522a.23.23 0 0 1 .224-.183h2.238zm26.47 9.063c.105 0 .19.087.19.193v5.455h1.424c.106 0 .191.086.191.193v1.938a.192.192 0 0 1-.19.193H98.608a.192.192 0 0 1-.191-.193V26.56c0-.107.085-.193.19-.193h1.444V20.91c0-.106.085-.193.19-.193h13.953zm-3.913 5.648h1.478v-3.468h-1.478v3.468zm-3.773 0h1.38v-3.468h-1.38v3.468zm-3.832 0h1.44v-3.468h-1.44v3.468zM107.733 7c.124 0 .215.117.186.238l-.236.993h6.333c.105 0 .19.086.19.193v4.945h1.49c.105 0 .19.086.19.192v1.818a.192.192 0 0 1-.19.193h-1.49v4.199a.192.192 0 0 1-.19.192h-3.822a.192.192 0 0 1-.191-.192v-1.746c0-.106.085-.193.19-.193h1.154v-2.26h-7.962l-.631 4.456h-2.765a.192.192 0 0 1-.188-.222l.629-4.234h-1.591a.192.192 0 0 1-.191-.193v-1.818c0-.106.085-.192.19-.192h1.883V8.424c0-.107.085-.193.19-.193h3.533l.25-1.054a.23.23 0 0 1 .222-.177h2.817zm-.082 9.312c.096 0 .184.061.217.153.322.894.58 1.807.772 2.738a.194.194 0 0 1-.188.233h-2.203a.228.228 0 0 1-.224-.185 30.79 30.79 0 0 0-.686-2.689.193.193 0 0 1 .182-.25h2.13zm3.696-5.704h-7.768v2.76h2.755c-.13-.552-.3-1.07-.513-1.806a.193.193 0 0 1 .183-.247h2.115a.23.23 0 0 1 .215.151c.225.614.434 1.157.625 1.903h2.388v-2.76z" fill="#151515"/></g></svg>